<?xml version="1.0" encoding="iso-8859-1"?>
<!-- Generator: Adobe Illustrator 19.0.0, SVG Export Plug-In . SVG Version: 6.00 Build 0)  -->
<svg version="1.1" id="Capa_1" xmlns="http://www.w3.org/2000/svg" xmlns:xlink="http://www.w3.org/1999/xlink" x="0px" y="0px"
	 viewBox="0 0 57.897 57.897" style="enable-background:new 0 0 57.897 57.897;" xml:space="preserve">
<g>
	<g>
		<path d="M22.351,49.363c0.086-0.115,0.177-0.227,0.258-0.345c0.087-0.126,0.164-0.259,0.246-0.389
			c0.108-0.172,0.218-0.342,0.316-0.519c0.036-0.065,0.065-0.135,0.1-0.201c0.767-1.471,1.183-3.109,1.183-4.822
			c0-1.714-0.416-3.352-1.184-4.823c-0.034-0.066-0.063-0.134-0.099-0.199c-0.097-0.176-0.207-0.345-0.314-0.516
			c-0.082-0.131-0.16-0.265-0.248-0.393c-0.08-0.116-0.169-0.226-0.254-0.339c-0.133-0.177-0.266-0.353-0.409-0.521
			c-0.064-0.074-0.132-0.145-0.198-0.218c-0.177-0.196-0.358-0.387-0.548-0.57c-0.021-0.02-0.039-0.043-0.061-0.063
			c-0.009-0.008-0.02-0.01-0.029-0.018c-1.878-1.755-4.39-2.838-7.156-2.838s-5.279,1.083-7.156,2.838
			c-0.009,0.008-0.02,0.01-0.029,0.018c-0.022,0.02-0.04,0.043-0.061,0.063c-0.191,0.182-0.372,0.374-0.548,0.57
			c-0.066,0.073-0.135,0.144-0.198,0.218c-0.143,0.168-0.277,0.344-0.409,0.521c-0.085,0.113-0.174,0.223-0.254,0.339
			c-0.088,0.127-0.166,0.261-0.248,0.393c-0.107,0.171-0.217,0.34-0.314,0.516c-0.036,0.065-0.065,0.134-0.099,0.199
			c-0.768,1.471-1.184,3.11-1.184,4.823c0,1.713,0.416,3.351,1.183,4.822c0.034,0.066,0.064,0.135,0.1,0.201
			c0.097,0.177,0.208,0.347,0.316,0.519c0.081,0.13,0.159,0.263,0.246,0.389c0.081,0.118,0.172,0.23,0.258,0.345
			c0.131,0.175,0.262,0.349,0.404,0.515c0.066,0.077,0.137,0.151,0.206,0.226c0.174,0.193,0.352,0.381,0.539,0.56
			c0.023,0.022,0.042,0.046,0.065,0.067c0.009,0.009,0.021,0.011,0.03,0.019c1.877,1.754,4.389,2.837,7.155,2.837
			s5.277-1.083,7.155-2.837c0.009-0.008,0.021-0.011,0.03-0.019c0.023-0.021,0.042-0.045,0.065-0.067
			c0.187-0.179,0.365-0.368,0.539-0.56c0.068-0.076,0.14-0.149,0.206-0.226C22.089,49.711,22.221,49.538,22.351,49.363z
			 M22.412,43.909c-0.007,0.074-0.02,0.146-0.029,0.22c-0.025,0.2-0.053,0.398-0.091,0.593c-0.015,0.076-0.034,0.151-0.05,0.226
			c-0.043,0.192-0.091,0.382-0.146,0.568c-0.021,0.071-0.044,0.141-0.067,0.211c-0.061,0.187-0.129,0.371-0.203,0.552
			c-0.027,0.068-0.055,0.135-0.084,0.202c-0.076,0.174-0.16,0.344-0.247,0.512c-0.038,0.072-0.074,0.145-0.114,0.217
			c-0.081,0.146-0.17,0.286-0.259,0.427c-0.057,0.089-0.112,0.181-0.173,0.268c-0.066,0.095-0.138,0.185-0.208,0.277
			c-0.094,0.125-0.186,0.251-0.288,0.371c-1.296-1.529-2-3.437-2-5.466s0.704-3.937,2-5.466c0.102,0.12,0.193,0.247,0.288,0.371
			c0.069,0.092,0.142,0.182,0.207,0.277c0.061,0.088,0.115,0.179,0.173,0.268c0.089,0.14,0.178,0.281,0.259,0.427
			c0.04,0.071,0.076,0.144,0.114,0.217c0.087,0.168,0.171,0.338,0.247,0.512c0.029,0.067,0.057,0.134,0.084,0.202
			c0.074,0.181,0.141,0.365,0.203,0.552c0.023,0.07,0.046,0.14,0.067,0.211c0.056,0.187,0.103,0.377,0.146,0.568
			c0.017,0.075,0.036,0.15,0.05,0.226c0.038,0.195,0.066,0.394,0.091,0.593c0.009,0.073,0.022,0.146,0.029,0.22
			c0.026,0.271,0.042,0.544,0.042,0.822S22.438,43.638,22.412,43.909z M7.453,48.553c-0.102-0.12-0.193-0.247-0.288-0.371
			C7.096,48.09,7.024,48,6.958,47.905c-0.061-0.088-0.115-0.179-0.173-0.268c-0.089-0.14-0.178-0.281-0.259-0.427
			c-0.04-0.071-0.076-0.144-0.114-0.217c-0.087-0.168-0.171-0.338-0.247-0.512c-0.029-0.067-0.057-0.134-0.084-0.202
			c-0.074-0.181-0.141-0.365-0.203-0.552c-0.023-0.07-0.046-0.14-0.067-0.211c-0.056-0.187-0.103-0.377-0.146-0.568
			c-0.017-0.075-0.036-0.15-0.05-0.226c-0.038-0.195-0.066-0.394-0.091-0.593c-0.009-0.073-0.022-0.146-0.029-0.22
			c-0.026-0.271-0.042-0.544-0.042-0.822s0.016-0.551,0.042-0.822c0.007-0.074,0.02-0.146,0.029-0.22
			c0.025-0.2,0.053-0.398,0.091-0.593c0.015-0.076,0.034-0.151,0.05-0.226c0.043-0.192,0.091-0.382,0.146-0.568
			c0.021-0.071,0.044-0.141,0.067-0.211c0.061-0.187,0.129-0.371,0.203-0.552c0.027-0.068,0.055-0.135,0.084-0.202
			c0.076-0.174,0.16-0.344,0.247-0.512c0.038-0.072,0.074-0.145,0.114-0.217c0.081-0.146,0.17-0.286,0.259-0.427
			c0.057-0.089,0.112-0.181,0.173-0.268c0.066-0.095,0.138-0.185,0.207-0.277c0.094-0.125,0.186-0.251,0.288-0.371
			c1.296,1.529,2,3.437,2,5.466S8.75,47.024,7.453,48.553z M8.916,49.918c1.643-1.902,2.537-4.288,2.537-6.831
			s-0.895-4.929-2.537-6.831c1.412-1.044,3.151-1.669,5.037-1.669s3.626,0.625,5.037,1.669c-1.643,1.902-2.537,4.288-2.537,6.831
			c0,2.542,0.895,4.929,2.537,6.831c-1.412,1.044-3.151,1.669-5.037,1.669S10.328,50.962,8.916,49.918z"/>
		<path d="M56.438,45.413c-1.56-1.56-4.097-1.56-5.657,0l-0.29,0.29L14.569,3.346C12.284,0.652,8.717-0.566,5.484,0.25
			C4.226,0.567,3.161,1.144,2.32,1.966C0.904,3.349,0.222,5.291,0.296,7.739c0.078,2.56,1.285,5.011,3.312,6.724L45.95,50.244
			l-0.827,0.827c-1.56,1.559-1.56,4.097,0,5.657c0.78,0.78,1.804,1.169,2.829,1.169s2.048-0.39,2.828-1.169l5.657-5.657
			C57.997,49.511,57.997,46.973,56.438,45.413z M2.295,7.678C2.239,5.813,2.718,4.373,3.717,3.397
			C4.303,2.825,5.061,2.419,5.972,2.19C6.481,2.062,7,2,7.521,2c2.04,0,4.092,0.954,5.522,2.64l17.725,20.9l-5.06,4.98L4.899,12.935
			C3.304,11.588,2.356,9.672,2.295,7.678z M27.242,31.816l4.824-4.747l17.007,20.053l-1.703,1.703L27.242,31.816z M55.024,49.656
			l-5.657,5.657c-0.78,0.779-2.048,0.779-2.829,0c-0.779-0.78-0.78-2.049,0-2.829l1.474-1.474c0.049-0.034,0.105-0.055,0.148-0.099
			l3-3c0.046-0.046,0.07-0.103,0.106-0.155l0.929-0.929c0.39-0.39,0.902-0.584,1.414-0.584s1.024,0.195,1.415,0.584
			C55.803,47.607,55.804,48.876,55.024,49.656z"/>
	</g>
</g>
<g>
</g>
<g>
</g>
<g>
</g>
<g>
</g>
<g>
</g>
<g>
</g>
<g>
</g>
<g>
</g>
<g>
</g>
<g>
</g>
<g>
</g>
<g>
</g>
<g>
</g>
<g>
</g>
<g>
</g>
</svg>
