<svg xmlns="http://www.w3.org/2000/svg" xmlns:xlink="http://www.w3.org/1999/xlink" version="1.0" x="0px" y="0px" viewBox="0 0 24 24" enable-background="new 0 0 24 24" xml:space="preserve"><circle cx="19.5" cy="7.5" r="2.5"></circle><path fill="none" stroke="#000000" stroke-width="2" stroke-miterlimit="10" d="M6,12l1.8,2.4c0.8,1,1.9,1.8,3.2,2  c1.4,0.3,3,0.6,3,0.6"></path><path d="M14.3,7L15,3.2l-2-0.3l-0.7,4c-0.2,1.1,0.3,2.3,1.2,3l1.8,1.3L11.5,16l-0.2,1.2c0,0-1,0.6-1.9,0.7c-1,0.1-1.6-0.2-2.3-0.6  l-3.6-2.2l-1,1.7l4.5,2.5C7.6,19.8,8.3,20,9.2,20c0.9,0,3.1-0.4,5.4-2.1l3.5-3.2c1.4-1.3,1.2-3.5-0.3-4.5l-2.9-1.9  C14.5,8,14.2,7.5,14.3,7z"></path></svg>