<?xml version="1.0" encoding="iso-8859-1"?>
<!-- Generator: Adobe Illustrator 16.0.0, SVG Export Plug-In . SVG Version: 6.00 Build 0)  -->
<!DOCTYPE svg PUBLIC "-//W3C//DTD SVG 1.1//EN" "http://www.w3.org/Graphics/SVG/1.1/DTD/svg11.dtd">
<svg version="1.1" id="Capa_1" xmlns="http://www.w3.org/2000/svg" xmlns:xlink="http://www.w3.org/1999/xlink" x="0px" y="0px"
	 width="551.448px" height="551.448px" viewBox="0 0 551.448 551.448" style="enable-background:new 0 0 551.448 551.448;"
	 xml:space="preserve">
<g>
	<g>
		<circle cx="315.057" cy="127.414" r="38.059"/>
		<path d="M25.532,426.481c2.075,5.891,7.612,9.572,13.521,9.572c1.587,0,3.194-0.268,4.771-0.822
			c7.468-2.64,11.389-10.825,8.75-18.303c-12.976-36.797-1.759-77.332,4.265-94.439h233.344c6.043,17.05,17.279,57.452,4.236,94.439
			c-2.639,7.469,1.281,15.663,8.75,18.303c1.578,0.564,3.184,0.822,4.771,0.822c5.91,0,11.447-3.682,13.521-9.582
			c13.895-39.358,6.016-80.276-1.119-103.982h23.199c7.918,0,14.344-6.416,14.344-14.344v-37.982
			c0-7.927-6.426-14.344-14.344-14.344h-23.639l5.967-10.222h60.359l23.273,25.723l-43.27,53.521
			c-3.434,4.255-5.316,9.562-5.316,15.032v98.312c0,13.205,10.699,23.906,23.906,23.906c13.205,0,23.906-10.701,23.906-23.906
			v-89.85l42.562-52.651c1.807-2.218,3.041-4.695,3.92-7.248l49.562,154.167c3.262,10.136,12.643,16.591,22.75,16.591
			c2.428,0,4.896-0.373,7.324-1.157c12.574-4.035,19.488-17.509,15.443-30.074l-57.088-177.585c-0.555-1.722-1.348-3.29-2.238-4.781
			h15.062c2.639,0,4.781-2.143,4.781-4.781c0-2.64-2.143-4.781-4.781-4.781h-24.137l-69.939-67.311h49.438l51.342,62.749
			c3.787,4.619,9.275,7.01,14.812,7.01c4.254,0,8.539-1.416,12.105-4.322c8.166-6.685,9.371-18.733,2.688-26.909l-57.088-69.768
			c-3.635-4.437-9.066-7.009-14.803-7.009h-85.623c-3.576,0-6.895,1.042-9.754,2.764l-0.01-0.02l-0.066,0.048
			c-1.723,1.042-3.242,2.343-4.562,3.854l-43.326,36.634c-3.205,1.606-6.006,4.112-7.947,7.43l-27.76,47.593h-74.645
			c-6.043,0-11.379,2.858-14.879,7.248h-65.599c-2.639,0-4.781,2.142-4.781,4.781s2.142,4.781,4.781,4.781h61.583
			c-0.096,0.765-0.229,1.521-0.229,2.314c0,2.83,0.65,5.488,1.75,7.908H14.344C6.426,255.811,0,262.227,0,270.154v37.981
			c0,7.928,6.426,14.344,14.344,14.344h12.307C19.517,346.204,11.638,387.122,25.532,426.481z M349.539,205.043l28.047,31.002
			h-46.131L349.539,205.043z"/>
	</g>
</g>
<g>
</g>
<g>
</g>
<g>
</g>
<g>
</g>
<g>
</g>
<g>
</g>
<g>
</g>
<g>
</g>
<g>
</g>
<g>
</g>
<g>
</g>
<g>
</g>
<g>
</g>
<g>
</g>
<g>
</g>
</svg>
