<?xml version="1.0" encoding="iso-8859-1"?>
<!-- Generator: Adobe Illustrator 19.0.0, SVG Export Plug-In . SVG Version: 6.00 Build 0)  -->
<svg version="1.1" id="Capa_1" xmlns="http://www.w3.org/2000/svg" xmlns:xlink="http://www.w3.org/1999/xlink" x="0px" y="0px"
	 viewBox="0 0 60.025 60.025" style="enable-background:new 0 0 60.025 60.025;" xml:space="preserve">
<g>
	<g>
		<path d="M15.513,32.008c-2.206,0-4,1.794-4,4s1.794,4,4,4s4-1.794,4-4S17.719,32.008,15.513,32.008z M15.513,38.008
			c-1.103,0-2-0.897-2-2s0.897-2,2-2s2,0.897,2,2S16.616,38.008,15.513,38.008z"/>
		<path d="M21.513,34.008c2.206,0,4-1.794,4-4s-1.794-4-4-4s-4,1.794-4,4S19.307,34.008,21.513,34.008z M21.513,28.008
			c1.103,0,2,0.897,2,2s-0.897,2-2,2s-2-0.897-2-2S20.411,28.008,21.513,28.008z"/>
		<path d="M25.513,34.024c-2.206,0-4,1.794-4,4s1.794,4,4,4s4-1.794,4-4S27.719,34.024,25.513,34.024z M25.513,40.024
			c-1.103,0-2-0.897-2-2s0.897-2,2-2s2,0.897,2,2S26.616,40.024,25.513,40.024z"/>
		<path d="M51.782,26.246c-1.695-3.426-2.591-7.228-2.593-10.938l0.146-2.594c0.112-1.783,0.271-3.616,0.577-4.759
			c0.376-1.408,0.389-2.82,0.036-4.084c-0.938-3.366-3.634-3.987-5.038-3.852c-1.554-0.155-4.44,0.585-5.193,4.504
			c-0.202,1.054-0.139,2.185,0.196,3.457c0.304,1.16,0.585,3.111,0.685,5.048l0.004,0.084c0.039,0.791,0.047,1.498,0.023,2.14
			c0,3.768-0.896,7.57-2.591,10.995c-0.479,0.968-0.907,1.924-1.31,2.87c-3.389-3.742-8.268-6.11-13.702-6.11
			c-10.206,0-18.509,8.303-18.509,18.509s8.303,18.509,18.509,18.509c5.108,0,9.738-2.08,13.09-5.437
			c1.48,3.599,3.329,5.437,5.513,5.437h6.565c3.012,0,4.599-3.38,5.753-6.686c1.041-2.98,1.569-6.223,1.569-9.638v-4.398
			C55.37,34.036,52.856,28.417,51.782,26.246z M41.681,4.9c0.581-3.029,2.681-2.936,3.086-2.885l0.142,0.021l0.142-0.021
			c0.091-0.01,2.226-0.287,2.971,2.392c0.257,0.92,0.242,1.969-0.041,3.031c-0.32,1.196-0.489,2.889-0.607,4.625h-4.833
			c-0.128-1.681-0.374-3.374-0.694-4.592C41.589,6.495,41.536,5.655,41.681,4.9z M47.417,19.008h-5.018
			c0.143-1.187,0.226-2.532,0.225-3.719c0.014-0.363,0.015-0.751,0.01-1.149c0-0.027,0.001-0.05,0.001-0.077h4.619
			c-0.006,0.106-0.012,0.214-0.017,0.319l-0.046,0.869C47.191,16.468,47.275,17.82,47.417,19.008z M35.725,52.013l-0.07,0.109
			c-3.031,3.604-7.567,5.902-12.633,5.902c-9.103,0-16.509-7.406-16.509-16.509s7.406-16.509,16.509-16.509
			c5.449,0,10.276,2.666,13.285,6.75c0.218,0.296,0.428,0.597,0.624,0.903c0.059,0.092,0.113,0.186,0.17,0.28
			c0.187,0.305,0.37,0.612,0.536,0.926c0.058,0.111,0.108,0.227,0.164,0.339c0.225,0.451,0.427,0.911,0.609,1.378
			c0.11,0.285,0.222,0.57,0.316,0.862c0.06,0.183,0.108,0.37,0.162,0.556c0.087,0.305,0.169,0.613,0.239,0.925
			c0.04,0.181,0.077,0.363,0.111,0.545c0.064,0.339,0.115,0.683,0.157,1.029c0.02,0.16,0.043,0.32,0.058,0.481
			c0.047,0.506,0.078,1.018,0.078,1.536c0,0.534-0.03,1.06-0.08,1.581c-0.015,0.154-0.041,0.305-0.059,0.458
			c-0.045,0.367-0.098,0.732-0.167,1.091c-0.034,0.178-0.076,0.354-0.116,0.53c-0.073,0.321-0.154,0.64-0.246,0.954
			c-0.059,0.2-0.12,0.398-0.187,0.595c-0.088,0.263-0.185,0.522-0.286,0.78c-0.095,0.241-0.19,0.481-0.296,0.717
			c-0.074,0.167-0.158,0.328-0.237,0.492C37.284,49.875,36.579,50.983,35.725,52.013z M53.513,43.7c0,3.19-0.49,6.211-1.458,8.979
			c-0.801,2.295-2.073,5.346-3.864,5.346h-6.565c-1.414,0-2.842-1.82-4.033-5.135c1.226-1.567,2.2-3.334,2.873-5.246
			c0.021-0.059,0.044-0.116,0.064-0.175c0.128-0.375,0.24-0.756,0.344-1.142c0.048-0.176,0.094-0.352,0.136-0.529
			c0.077-0.322,0.148-0.646,0.207-0.974c0.052-0.284,0.092-0.57,0.131-0.856c0.033-0.251,0.073-0.499,0.096-0.753
			c0.053-0.564,0.086-1.13,0.086-1.699c0-0.573-0.035-1.141-0.086-1.705c-0.015-0.169-0.038-0.334-0.058-0.502
			c-0.048-0.404-0.11-0.806-0.184-1.204c-0.033-0.174-0.064-0.348-0.101-0.52c-0.095-0.436-0.207-0.867-0.333-1.294
			c-0.032-0.109-0.057-0.22-0.091-0.328c-0.156-0.494-0.337-0.981-0.536-1.461c-0.095-0.23-0.203-0.453-0.306-0.679
			c-0.114-0.247-0.23-0.493-0.355-0.736c-0.138-0.269-0.284-0.533-0.435-0.795c-0.101-0.174-0.207-0.345-0.314-0.516
			c-0.182-0.292-0.364-0.582-0.562-0.863c-0.008-0.011-0.014-0.023-0.022-0.033c0.487-1.217,1.052-2.475,1.68-3.746
			c0.965-1.951,1.683-4.016,2.153-6.125h5.856c0.47,2.111,1.188,4.175,2.152,6.125c2.115,4.276,3.433,8.846,3.524,12.197
			L53.513,43.7L53.513,43.7z"/>
	</g>
</g>
<g>
</g>
<g>
</g>
<g>
</g>
<g>
</g>
<g>
</g>
<g>
</g>
<g>
</g>
<g>
</g>
<g>
</g>
<g>
</g>
<g>
</g>
<g>
</g>
<g>
</g>
<g>
</g>
<g>
</g>
</svg>
