<?xml version="1.0" standalone="no"?>
<!DOCTYPE svg PUBLIC "-//W3C//DTD SVG 20010904//EN"
 "http://www.w3.org/TR/2001/REC-SVG-20010904/DTD/svg10.dtd">
<svg version="1.0" xmlns="http://www.w3.org/2000/svg"
 width="256.000000pt" height="256.000000pt" viewBox="0 0 256.000000 256.000000"
 preserveAspectRatio="xMidYMid meet">
<metadata>
Created by potrace 1.13, written by Peter Selinger 2001-2015
</metadata>
<g transform="translate(0.000000,256.000000) scale(0.100000,-0.100000)"
fill="#000000" stroke="none">
<path d="M722 2546 c-77 -25 -134 -76 -179 -161 -23 -42 -27 -63 -27 -130 0
-131 56 -223 169 -277 49 -23 73 -28 135 -28 129 0 225 60 276 172 92 203 -41
424 -261 434 -42 3 -87 -2 -113 -10z m149 -97 c112 -34 176 -158 138 -268 -9
-24 -17 -31 -38 -31 -69 0 -183 88 -217 167 -15 35 -18 101 -6 119 14 23 69
29 123 13z m-180 -235 c34 -51 99 -110 144 -131 52 -25 43 -36 -24 -31 -131 9
-224 139 -186 258 7 23 8 22 23 -15 8 -22 28 -58 43 -81z"/>
<path d="M1933 2548 c-21 -7 -258 -238 -731 -712 -607 -608 -701 -706 -711
-742 -14 -51 -2 -95 39 -145 33 -42 39 -84 16 -127 -8 -15 -121 -133 -251
-262 -278 -276 -295 -296 -295 -357 0 -55 16 -87 72 -139 55 -54 77 -64 131
-64 61 0 81 17 357 295 129 130 247 243 262 251 43 23 85 17 127 -16 50 -41
94 -53 145 -39 36 10 134 104 743 711 776 775 732 723 720 847 -10 116 -105
261 -252 384 -97 81 -181 120 -270 123 -38 2 -84 -2 -102 -8z m191 -122 c165
-81 350 -317 332 -424 -4 -28 -115 -142 -697 -720 -380 -378 -696 -689 -701
-691 -11 -4 -468 448 -468 463 0 11 1368 1389 1389 1398 27 13 89 1 145 -26z
m-1384 -1691 c41 -41 72 -76 69 -78 -2 -2 -20 -10 -39 -17 -23 -9 -129 -106
-301 -277 -146 -145 -270 -263 -275 -263 -12 0 -94 82 -94 95 0 5 119 128 264
274 190 192 267 276 277 304 7 20 16 37 19 37 3 0 39 -34 80 -75z"/>
</g>
</svg>
