<?xml version="1.0" encoding="iso-8859-1"?>
<!-- Generator: Adobe Illustrator 18.1.1, SVG Export Plug-In . SVG Version: 6.00 Build 0)  -->
<svg version="1.1" id="Capa_1" xmlns="http://www.w3.org/2000/svg" xmlns:xlink="http://www.w3.org/1999/xlink" x="0px" y="0px"
	 viewBox="0 0 327.046 327.046" style="enable-background:new 0 0 327.046 327.046;" xml:space="preserve">
<g>
	<g>
		<path style="fill:#010002;" d="M325.224,146.085h-96.108c-1.392-5.091-5.08-15.289-16.116-15.289
			c-1.006,0-1.817,0.816-1.817,1.817v6.092l-8.474-4.128l0.256-0.745c0.305-0.876-0.103-1.844-0.946-2.235l-56.349-26.564
			c-0.321-0.25-0.631-0.495-0.963-0.707c-3.954-2.622-8.273-3.802-12.782-3.622c-1.137-0.294-2.197-0.435-3.231-0.435H64.595
			c-1.001,0-1.817,0.816-1.817,1.817v1.523h-9.116c-6.69,0-10.791,5.64-10.889,11.096c-0.071,4.346,2.556,8.828,8.67,9.04
			l11.335,0.054v1.594c0,1.006,0.816,1.817,1.817,1.817H100.4l-24.851,30.687c-1.137,1.425-2.056,3.04-2.72,4.803
			c-1.479,0.848-2.823,1.974-3.998,3.383c-15.98,19.167-33.956,38.927-58.28,64.083c-0.636,0.658-0.68,1.692-0.103,2.404
			l0.582,0.723l-7.974,8.828c-3.111,3.209-3.9,7.631-2.127,11.825c1.67,3.938,5.249,6.592,8.909,6.592
			c2.301,0,4.498-1.012,6.38-2.959l7.68-8.42l1.697,2.089c0.337,0.397,0.816,0.642,1.338,0.664c0.495-0.027,1.017-0.185,1.382-0.555
			c20.826-21.522,36.594-38.547,50.926-55.005c23.279,12.7,36.317,31.03,42.18,59.231c0.201,0.974,1.137,1.61,2.138,1.414
			l1.539-0.31l1.838,8.501c1.11,6.124,6.478,8.92,11.003,8.92c3.084,0,5.847-1.186,7.566-3.242c1.126-1.349,2.328-3.715,1.664-7.365
			l-2.268-10.731l2.235-0.446c0.479-0.098,0.892-0.37,1.164-0.783c0.267-0.397,0.364-0.897,0.261-1.371
			c-5.923-28.517-18.205-50.077-37.513-65.824c0.484-0.517,0.957-1.044,1.403-1.605l37.372-46.134l43.012,20.293
			c0.468,0.228,1.006,0.228,1.479,0.033c0.473-0.201,0.838-0.593,1.012-1.077l0.729-2.089l6.543,3.149
			c2.747,1.436,5.787,1.653,8.583,0.631v5.553c0,1.001,0.81,1.817,1.817,1.817c11.243,0,14.658-9.502,16.121-14.936h96.108
			c1.001,0,1.817-1.093,1.817-2.094C327.041,146.901,326.225,146.085,325.224,146.085z"/>
		<path style="fill:#010002;" d="M143.934,52.941c7.125,0,13.402,3.53,17.291,8.898h-17.291c-1.006,0-1.811,0.816-1.811,1.817
			c0,1.006,0.81,1.817,1.811,1.817h19.423c0.794,1.73,1.343,3.59,1.648,5.532h-22.746c-1.012,0-1.822,0.816-1.822,1.817
			c0,1.006,0.816,1.822,1.822,1.822h23.056c-0.033,1.817-0.343,3.546-0.794,5.227h-16.208c-1.006,0-1.817,0.816-1.817,1.817
			c0,1.001,0.816,1.817,1.817,1.817h14.881c-3.448,7.207-10.753,12.238-19.265,12.238c-11.803,0-21.408-9.605-21.408-21.403
			C122.526,62.552,132.132,52.941,143.934,52.941z"/>
	</g>
</g>
<g>
</g>
<g>
</g>
<g>
</g>
<g>
</g>
<g>
</g>
<g>
</g>
<g>
</g>
<g>
</g>
<g>
</g>
<g>
</g>
<g>
</g>
<g>
</g>
<g>
</g>
<g>
</g>
<g>
</g>
</svg>
