<?xml version="1.0" encoding="iso-8859-1"?>
<!-- Generator: Adobe Illustrator 18.0.0, SVG Export Plug-In . SVG Version: 6.00 Build 0)  -->
<!DOCTYPE svg PUBLIC "-//W3C//DTD SVG 1.1//EN" "http://www.w3.org/Graphics/SVG/1.1/DTD/svg11.dtd">
<svg version="1.1" id="Capa_1" xmlns="http://www.w3.org/2000/svg" xmlns:xlink="http://www.w3.org/1999/xlink" x="0px" y="0px"
	 viewBox="0 0 219.572 219.572" style="enable-background:new 0 0 219.572 219.572;" xml:space="preserve">
<g>
	<path d="M142.213,151.025l15.631-48.109c1.004-3.09-0.096-6.475-2.725-8.385l-40.926-29.734c-2.629-1.91-6.188-1.91-8.816,0
		L64.453,94.531c-2.629,1.91-3.729,5.295-2.725,8.385l15.631,48.109c1.004,3.09,3.884,5.183,7.133,5.183h50.588
		C138.329,156.208,141.209,154.116,142.213,151.025z M89.941,141.208l-12.264-37.745l32.107-23.329l32.109,23.329l-12.264,37.745
		H89.941z"/>
	<path d="M203.563,166.82c10.153-16.632,16.01-36.162,16.01-57.034c0-26.775-9.64-51.337-25.624-70.412
		c-0.301-0.447-0.651-0.86-1.046-1.235c-11.05-12.801-25-23.03-40.82-29.659c-0.324-0.162-0.658-0.297-1-0.41
		c-12.756-5.197-26.696-8.069-41.297-8.069c-14.486,0-28.322,2.827-40.995,7.946c-0.346,0.114-0.684,0.25-1.011,0.414
		c-15.938,6.625-29.993,16.898-41.11,29.777c-0.392,0.374-0.741,0.786-1.041,1.232C9.641,58.445,0,83.009,0,109.786
		c0,20.873,5.858,40.403,16.011,57.036c0.216,0.433,0.472,0.841,0.764,1.222c19.44,30.926,53.862,51.527,93.011,51.527
		s73.569-20.6,93.011-51.525C203.089,167.665,203.346,167.255,203.563,166.82z M190.325,59.866
		c7.82,12.57,12.786,27.091,13.972,42.655L181.78,86.164L190.325,59.866z M132.446,17.746l-22.431,16.297L87.469,17.661
		c7.16-1.734,14.632-2.66,22.316-2.66C117.594,15.001,125.182,15.957,132.446,17.746z M37.791,86.163l-22.516,16.357
		c1.186-15.564,6.152-30.086,13.973-42.656L37.791,86.163z M37.468,170.985h27.575l8.582,26.412
		C59.551,191.566,47.178,182.44,37.468,170.985z M91.128,202.723l-13.503-41.556c-1.004-3.09-3.884-5.182-7.133-5.182H27.048
		c-5.964-10.639-9.935-22.538-11.405-35.19l35.373-25.699c2.629-1.91,3.729-5.295,2.725-8.385L40.313,45.379
		c8.403-9.058,18.55-16.476,29.903-21.712l35.391,25.714c1.314,0.955,2.861,1.433,4.408,1.433c1.547,0,3.095-0.478,4.408-1.433
		l35.211-25.584c11.241,5.23,21.291,12.599,29.626,21.584L165.83,86.71c-1.004,3.09,0.096,6.476,2.725,8.386l35.375,25.699
		c-1.471,12.652-5.441,24.551-11.406,35.19H149.08c-3.249,0-6.129,2.092-7.133,5.183l-13.501,41.555
		c-6.036,1.209-12.274,1.849-18.661,1.849C103.4,204.571,97.162,203.933,91.128,202.723z M145.948,197.396l8.581-26.411h27.574
		C172.395,182.44,160.021,191.565,145.948,197.396z"/>
</g>
<g>
</g>
<g>
</g>
<g>
</g>
<g>
</g>
<g>
</g>
<g>
</g>
<g>
</g>
<g>
</g>
<g>
</g>
<g>
</g>
<g>
</g>
<g>
</g>
<g>
</g>
<g>
</g>
<g>
</g>
</svg>
