<?xml version="1.0" encoding="iso-8859-1"?>
<!-- Generator: Adobe Illustrator 19.0.0, SVG Export Plug-In . SVG Version: 6.00 Build 0)  -->
<svg version="1.1" id="Capa_1" xmlns="http://www.w3.org/2000/svg" xmlns:xlink="http://www.w3.org/1999/xlink" x="0px" y="0px"
	 viewBox="0 0 60.364 60.364" style="enable-background:new 0 0 60.364 60.364;" xml:space="preserve">
<g>
	<g>
		<g>
			<path d="M30.364,0.181c-0.061,0-0.121,0.004-0.182,0.005c-0.002,0-0.004,0-0.006,0h-0.001c-0.059,0-0.116-0.004-0.175-0.004
				c-16.542,0-30,13.458-30,30s13.458,30,30,30c0.061,0,0.121-0.004,0.182-0.005c0.061,0,0.121,0.005,0.182,0.005
				c16.542,0,30-13.458,30-30S46.906,0.181,30.364,0.181z M23.856,57.41l2.563-1.064l-4.187-11.706
				c0.327-0.035,0.632-0.222,0.79-0.538l0.447-0.895c0.247-0.494,0.047-1.095-0.447-1.342c-0.494-0.248-1.094-0.047-1.342,0.447
				l-0.447,0.895c-0.163,0.325-0.116,0.689,0.065,0.975L8.322,44.187l0.14,3.409C4.888,43.11,2.659,37.51,2.395,31.405l10.048-6.102
				l0.445,0.191c0.129,0.055,0.263,0.082,0.395,0.082c0.388,0,0.757-0.228,0.919-0.606c0.218-0.507-0.018-1.096-0.524-1.313
				l-0.406-0.174l-1.693-11.42l-2.856,0.374c3.051-3.714,7.039-6.626,11.596-8.384l-1.385,1.99l10.43,6.686v0.453
				c0,0.552,0.447,1,1,1s1-0.448,1-1v-0.506l9.369-7.164l-1.147-1.64c4.729,1.728,8.866,4.697,12.014,8.51l-2.451-0.321
				l-1.693,11.42l-0.406,0.174c-0.507,0.217-0.742,0.806-0.524,1.313c0.162,0.379,0.531,0.606,0.919,0.606
				c0.132,0,0.266-0.026,0.395-0.082l0.445-0.191l9.69,5.885c-0.212,5.968-2.297,11.465-5.689,15.919l0.12-2.921L40.43,44.18
				c0.181-0.286,0.228-0.65,0.065-0.975l-0.447-0.895c-0.247-0.495-0.848-0.695-1.342-0.447c-0.494,0.247-0.694,0.848-0.447,1.342
				l0.447,0.895c0.161,0.321,0.472,0.509,0.805,0.54l-5.275,11.673l2.508,1.041c-2.104,0.522-4.301,0.807-6.561,0.821
				C28.006,58.162,25.889,57.896,23.856,57.41z"/>
			<path d="M36.917,40.522c0.176,0.351,0.528,0.553,0.896,0.553c0.15,0,0.303-0.034,0.446-0.105
				c0.494-0.247,0.694-0.848,0.447-1.342l-0.262-0.524l4.1-12.301L30.619,18.13c0.426-0.115,0.746-0.487,0.746-0.949v-1
				c0-0.552-0.447-1-1-1s-1,0.448-1,1v1c0,0.462,0.32,0.834,0.746,0.949l-11.954,8.693l4.892,12.753l-0.026,0.052
				c-0.247,0.494-0.047,1.095,0.447,1.342c0.144,0.072,0.296,0.105,0.446,0.105c0.367,0,0.72-0.202,0.896-0.553l0.171-0.342h11.764
				L36.917,40.522z"/>
			<path d="M17.355,25.231l-0.919-0.394c-0.509-0.218-1.097,0.017-1.313,0.525c-0.218,0.507,0.018,1.096,0.524,1.313l0.919,0.394
				c0.129,0.055,0.263,0.082,0.395,0.082c0.388,0,0.757-0.228,0.919-0.606C18.097,26.037,17.861,25.449,17.355,25.231z"/>
			<path d="M43.769,27.151c0.132,0,0.266-0.026,0.395-0.082l0.919-0.394c0.507-0.217,0.742-0.806,0.524-1.313
				c-0.218-0.509-0.806-0.744-1.313-0.525l-0.919,0.394c-0.507,0.218-0.742,0.806-0.524,1.313
				C43.012,26.924,43.381,27.151,43.769,27.151z"/>
		</g>
	</g>
</g>
<g>
</g>
<g>
</g>
<g>
</g>
<g>
</g>
<g>
</g>
<g>
</g>
<g>
</g>
<g>
</g>
<g>
</g>
<g>
</g>
<g>
</g>
<g>
</g>
<g>
</g>
<g>
</g>
<g>
</g>
</svg>
