<?xml version="1.0" encoding="iso-8859-1"?>
<!-- Generator: Adobe Illustrator 18.1.1, SVG Export Plug-In . SVG Version: 6.00 Build 0)  -->
<svg version="1.1" id="Capa_1" xmlns="http://www.w3.org/2000/svg" xmlns:xlink="http://www.w3.org/1999/xlink" x="0px" y="0px"
	 viewBox="0 0 23.66 23.66" style="enable-background:new 0 0 23.66 23.66;" xml:space="preserve">
<g>
	<path style="fill:#010002;" d="M20.74,11.495l-8.91,6.352l-8.91-6.352L0,9.412v13.615h23.66V9.412L20.74,11.495z M11.779,0.632
		l-5.31,2.899H17.16L11.779,0.632z M20.938,10.17V4.046H2.722v6.125l9.108,6.494L20.938,10.17z M3.118,4.442h17.424v5.524
		l-8.712,6.212L3.118,9.966V4.442z M5.08,5.919h0.253V7.86H5.08V5.919z M6.008,7.03c0-0.322-0.004-0.556-0.02-0.801l0.01-0.003
		c0.096,0.211,0.225,0.433,0.359,0.648l0.616,0.985h0.255v-1.94H6.991v0.812c0,0.303,0.006,0.539,0.029,0.798L7.012,7.532
		c-0.09-0.199-0.205-0.404-0.346-0.631L6.047,5.919H5.771V7.86h0.237V7.03z M8.367,7.86L9.06,5.919H8.793L8.465,6.878
		C8.376,7.131,8.298,7.376,8.243,7.6H8.237C8.183,7.373,8.11,7.137,8.03,6.875L7.729,5.919H7.455L8.09,7.86H8.367z M9.268,5.919
		h0.253V7.86H9.268V5.919z M10.327,7.86h0.253V6.132h0.594V5.919H9.736v0.213h0.591V7.86z M11.284,7.86l0.203-0.611h0.687
		l0.207,0.611h0.27l-0.662-1.941h-0.3L11.027,7.86C11.027,7.86,11.284,7.86,11.284,7.86z M11.729,6.492
		c0.041-0.117,0.069-0.239,0.098-0.351h0.006c0.028,0.112,0.058,0.228,0.102,0.354l0.192,0.558H11.54
		C11.54,7.053,11.729,6.492,11.729,6.492z M13.081,7.86h0.253V6.132h0.594V5.919h-1.437v0.213h0.59V7.86z M14.141,5.919h0.253V7.86
		h-0.253V5.919z M15.588,7.891c0.495,0,0.901-0.357,0.901-1.022c0-0.579-0.343-0.984-0.875-0.984c-0.519,0-0.896,0.402-0.896,1.02
		C14.718,7.491,15.072,7.891,15.588,7.891z M15.605,6.089c0.418,0,0.619,0.403,0.619,0.792c0,0.441-0.225,0.806-0.621,0.806
		c-0.398,0-0.623-0.371-0.623-0.789C14.98,6.475,15.188,6.089,15.605,6.089z M17.05,7.03c0-0.322-0.003-0.556-0.017-0.801
		l0.008-0.003c0.096,0.211,0.226,0.433,0.36,0.648l0.616,0.985h0.254v-1.94h-0.237v0.812c0,0.303,0.007,0.539,0.029,0.798
		l-0.007,0.003c-0.09-0.199-0.205-0.404-0.346-0.631l-0.62-0.982h-0.276V7.86h0.236V7.03z M14.05,10.195l0.067-0.051l0.083-0.061
		c0.058-0.042,0.115-0.082,0.174-0.121c0.237-0.156,0.485-0.298,0.741-0.42c0.512-0.235,1.064-0.399,1.621-0.358
		c0.277,0.016,0.553,0.089,0.812,0.215c0.262,0.126,0.5,0.307,0.723,0.517c-0.152-0.264-0.353-0.506-0.605-0.702
		c-0.25-0.198-0.553-0.334-0.869-0.415c-0.643-0.148-1.314-0.043-1.914,0.171c-0.303,0.105-0.595,0.238-0.872,0.396
		c-0.069,0.04-0.139,0.08-0.208,0.123l-0.104,0.066l-0.051,0.035l-0.025,0.018l-0.039,0.029c-0.096,0.073-0.221,0.156-0.338,0.226
		c-0.478,0.289-1,0.509-1.517,0.566c-0.516,0.063-1.008-0.062-1.414-0.376c-0.1-0.076-0.202-0.17-0.287-0.259L9.879,9.628
		C9.824,9.565,9.765,9.504,9.703,9.445C9.458,9.212,9.164,9.017,8.84,8.895C8.518,8.773,8.174,8.716,7.843,8.733
		C7.51,8.749,7.193,8.82,6.893,8.926C6.3,9.151,5.769,9.486,5.333,9.915c0.535-0.286,1.096-0.511,1.663-0.616
		c0.563-0.111,1.137-0.074,1.6,0.16C8.825,9.577,9.03,9.742,9.208,9.936c0.046,0.048,0.088,0.1,0.128,0.152l0.069,0.088
		c0.026,0.031,0.043,0.056,0.074,0.092c0.116,0.137,0.231,0.252,0.366,0.367c0.264,0.225,0.583,0.401,0.927,0.5
		c0.345,0.1,0.704,0.118,1.045,0.081c0.688-0.083,1.298-0.364,1.835-0.721C13.788,10.403,13.911,10.312,14.05,10.195z"/>
</g>
<g>
</g>
<g>
</g>
<g>
</g>
<g>
</g>
<g>
</g>
<g>
</g>
<g>
</g>
<g>
</g>
<g>
</g>
<g>
</g>
<g>
</g>
<g>
</g>
<g>
</g>
<g>
</g>
<g>
</g>
</svg>
