<?xml version="1.0" encoding="iso-8859-1"?>
<!-- Generator: Adobe Illustrator 16.0.0, SVG Export Plug-In . SVG Version: 6.00 Build 0)  -->
<!DOCTYPE svg PUBLIC "-//W3C//DTD SVG 1.1//EN" "http://www.w3.org/Graphics/SVG/1.1/DTD/svg11.dtd">
<svg version="1.1" id="Capa_1" xmlns="http://www.w3.org/2000/svg" xmlns:xlink="http://www.w3.org/1999/xlink" x="0px" y="0px"
	 width="570.311px" height="570.31px" viewBox="0 0 570.311 570.31" style="enable-background:new 0 0 570.311 570.31;"
	 xml:space="preserve">
<g>
	<g>
		<circle cx="49.285" cy="369.692" r="49.285"/>
		<path d="M561.338,501.483l-100.77-80.612c-8.625-6.914-20.865-7-29.586-0.22l-58.953,45.728c-0.248-0.946-0.449-1.894-0.822-2.83
			l-36.328-89.734v-73.689c0-13.205-10.701-23.906-23.906-23.906s-23.906,10.701-23.906,23.906v78.346c0,3.07,0.593,6.13,1.75,8.97
			l21.869,54.019h-90.901l12.604-18.216c3.653-5.279,4.408-12.03,2.027-17.978l-11.685-29.224l8.119,7.794
			c3.71,3.557,8.482,5.336,13.244,5.336c5.021,0,10.041-1.971,13.799-5.872c7.315-7.621,7.076-19.718-0.545-27.042l-58.236-55.96
			c-3.146-3.013-7.229-4.877-11.57-5.26l-51.36-4.532l5.097-11.887c2.362-5.537,9.027-11.198,14.86-12.651l63.552-15.874
			l119.387-4.609c3.232-0.124,6.408-0.908,9.344-2.295l113.066-53.741c11.924-5.671,16.992-19.928,11.332-31.853
			c-5.662-11.915-19.9-16.993-31.854-11.332l-108.629,51.628l-80.938,3.127l58.025-24.614c8.146-3.461,13.723-11.14,14.477-19.966
			l8.961-104.231c1.129-13.148-8.615-24.738-21.773-25.866c-13.072-1.033-24.729,8.616-25.867,21.773l-7.726,89.897l-81.09,34.406
			l-87.219,20.463c-5.757,1.75-12.814,7.421-15.759,12.661l-49.696,80.755c-2.945,5.24-0.746,11.121,4.925,13.148l59.766,28.238
			c2.62,0.938,56.801,4.16,67.186,4.762c-4.695,5.24-6.369,12.843-3.576,19.823l23.055,57.652l-21.994,31.786
			c-0.574,0.832-1.004,1.712-1.425,2.591c-2.237,1.989-3.72,4.82-3.72,8.062v67.789c0,6.024,4.877,10.901,10.901,10.901h173.281
			c6.771,1.577,14.152,0.306,20.072-4.284l73.201-56.802l86.062,68.841c4.408,3.528,9.678,5.24,14.918,5.24
			c7.01,0,13.961-3.069,18.686-8.97C573.32,524.767,571.646,509.725,561.338,501.483z"/>
		<path d="M109.558,432.489c-27.205,0-49.275,22.052-49.275,49.295c0,27.234,22.07,49.267,49.275,49.267
			c27.215,0,49.285-22.042,49.285-49.267C158.843,454.541,136.772,432.489,109.558,432.489z"/>
	</g>
</g>
<g>
</g>
<g>
</g>
<g>
</g>
<g>
</g>
<g>
</g>
<g>
</g>
<g>
</g>
<g>
</g>
<g>
</g>
<g>
</g>
<g>
</g>
<g>
</g>
<g>
</g>
<g>
</g>
<g>
</g>
</svg>
