<?xml version="1.0" encoding="iso-8859-1"?>
<!-- Generator: Adobe Illustrator 18.1.1, SVG Export Plug-In . SVG Version: 6.00 Build 0)  -->
<svg version="1.1" id="Capa_1" xmlns="http://www.w3.org/2000/svg" xmlns:xlink="http://www.w3.org/1999/xlink" x="0px" y="0px"
	 viewBox="0 0 57.07 57.07" style="enable-background:new 0 0 57.07 57.07;" xml:space="preserve">
<g>
	<g>
		<path style="fill:#010002;" d="M5.778,50.264c2.018-0.394,3.334-2.35,2.942-4.365c-1.135-5.842-2.923-22.594,2.367-29.89
			c0.184-0.252,0.325-0.521,0.438-0.797c2.907-4.051,6.727-7.2,11.308-9.249c2.576-1.152,0.346-4.926-2.211-3.784
			c-4.273,1.911-7.941,4.775-10.938,8.289c-1.591-0.766-3.551-0.313-4.626,1.168C-3.079,22.853,0.926,44.851,1.41,47.325
			c0.347,1.776,1.905,3.008,3.65,3.008C5.296,50.333,5.536,50.31,5.778,50.264z"/>
		<circle style="fill:#010002;" cx="5.898" cy="5.007" r="4.235"/>
		<path style="fill:#010002;" d="M47.586,46.973v-2.455c-27.815,0-43.279,8.981-43.924,9.365l1.434,2.416
			c0.133-0.078,12.025-6.981,33.361-8.623v7.922H57.07v-8.625H47.586z"/>
	</g>
</g>
<g>
</g>
<g>
</g>
<g>
</g>
<g>
</g>
<g>
</g>
<g>
</g>
<g>
</g>
<g>
</g>
<g>
</g>
<g>
</g>
<g>
</g>
<g>
</g>
<g>
</g>
<g>
</g>
<g>
</g>
</svg>
