<?xml version="1.0" encoding="iso-8859-1"?>
<!-- Generator: Adobe Illustrator 16.0.0, SVG Export Plug-In . SVG Version: 6.00 Build 0)  -->
<!DOCTYPE svg PUBLIC "-//W3C//DTD SVG 1.1//EN" "http://www.w3.org/Graphics/SVG/1.1/DTD/svg11.dtd">
<svg version="1.1" id="Capa_1" xmlns="http://www.w3.org/2000/svg" xmlns:xlink="http://www.w3.org/1999/xlink" x="0px" y="0px"
	 width="46.361px" height="46.361px" viewBox="0 0 46.361 46.361" style="enable-background:new 0 0 46.361 46.361;"
	 xml:space="preserve">
<g>
	<path d="M40.225,17.042H29.352V6.148c0-3.39-2.769-6.138-6.159-6.138c-3.389,0-6.157,2.748-6.157,6.138v10.895H6.139
		C2.75,17.042,0,19.79,0,23.18c0,3.391,2.75,6.139,6.139,6.139h10.897v10.896c0,3.39,2.768,6.138,6.157,6.138
		c3.39,0,6.159-2.748,6.159-6.138V29.318l10.873,0.002c3.389,0,6.137-2.75,6.137-6.141C46.361,19.79,43.613,17.042,40.225,17.042z"
		/>
</g>
<g>
</g>
<g>
</g>
<g>
</g>
<g>
</g>
<g>
</g>
<g>
</g>
<g>
</g>
<g>
</g>
<g>
</g>
<g>
</g>
<g>
</g>
<g>
</g>
<g>
</g>
<g>
</g>
<g>
</g>
</svg>
