<?xml version="1.0" encoding="iso-8859-1"?>
<!-- Generator: Adobe Illustrator 18.0.0, SVG Export Plug-In . SVG Version: 6.00 Build 0)  -->
<!DOCTYPE svg PUBLIC "-//W3C//DTD SVG 1.1//EN" "http://www.w3.org/Graphics/SVG/1.1/DTD/svg11.dtd">
<svg version="1.1" id="Capa_1" xmlns="http://www.w3.org/2000/svg" xmlns:xlink="http://www.w3.org/1999/xlink" x="0px" y="0px"
	 viewBox="0 0 263.018 263.018" style="enable-background:new 0 0 263.018 263.018;" xml:space="preserve">
<g>
	<path d="M218.518,81.634c-0.578,0-1.15,0.022-1.723,0.044c-2.623-35.465-32.296-63.524-68.419-63.524h-33.733
		c-36.123,0-65.796,28.06-68.419,63.524c-0.572-0.022-1.145-0.044-1.723-0.044c-24.538,0-44.5,19.962-44.5,44.5v74.229
		c0,24.538,19.962,44.5,44.5,44.5h174.018c24.538,0,44.5-19.962,44.5-44.5v-74.229C263.018,101.597,243.055,81.634,218.518,81.634z
		 M175.013,116.789c-1.719-8.011-5.602-15.225-11.003-21.005h22.007C180.615,101.564,176.733,108.777,175.013,116.789z
		 M131.509,152.634c-14.612,0-26.5-11.888-26.5-26.5s11.888-26.5,26.5-26.5s26.5,11.888,26.5,26.5S146.121,152.634,131.509,152.634z
		 M88.004,116.789c-1.719-8.011-5.602-15.225-11.003-21.005h22.007C93.606,101.564,89.724,108.777,88.004,116.789z M88.004,135.48
		c2.479,11.55,9.45,21.446,18.992,27.769c-9.542,6.323-16.513,16.219-18.992,27.769c-2.479-11.55-9.45-21.446-18.992-27.769
		C78.554,156.926,85.526,147.03,88.004,135.48z M88.004,209.709c1.356,6.316,4.05,12.14,7.779,17.154H80.225
		C83.954,221.85,86.649,216.026,88.004,209.709z M105.009,200.364c0-14.612,11.888-26.5,26.5-26.5s26.5,11.888,26.5,26.5
		s-11.888,26.5-26.5,26.5S105.009,214.976,105.009,200.364z M175.013,209.709c1.356,6.316,4.05,12.14,7.779,17.154h-15.559
		C170.963,221.85,173.658,216.026,175.013,209.709z M175.013,191.018c-2.479-11.55-9.45-21.446-18.992-27.769
		c9.542-6.323,16.513-16.219,18.992-27.769c2.479,11.55,9.45,21.446,18.992,27.769C184.463,169.572,177.492,179.469,175.013,191.018
		z M245.018,126.134c0,14.612-11.888,26.5-26.5,26.5s-26.5-11.888-26.5-26.5s11.888-26.5,26.5-26.5S245.018,111.522,245.018,126.134
		z M114.642,36.154h33.733c24.847,0,45.57,17.99,49.828,41.629H64.814C69.072,54.144,89.795,36.154,114.642,36.154z M44.5,99.634
		c14.612,0,26.5,11.888,26.5,26.5s-11.888,26.5-26.5,26.5S18,140.747,18,126.134S29.888,99.634,44.5,99.634z M18,200.364
		c0-14.612,11.888-26.5,26.5-26.5s26.5,11.888,26.5,26.5s-11.888,26.5-26.5,26.5S18,214.976,18,200.364z M218.518,226.864
		c-14.612,0-26.5-11.888-26.5-26.5s11.888-26.5,26.5-26.5s26.5,11.888,26.5,26.5S233.13,226.864,218.518,226.864z"/>
	<path d="M164.259,52.154h-2.981c-0.91-4.007-4.487-7-8.769-7s-7.859,2.993-8.769,7h-3.461c-0.91-4.007-4.487-7-8.769-7
		s-7.859,2.993-8.769,7h-3.461c-0.91-4.007-4.487-7-8.769-7s-7.859,2.993-8.769,7h-2.981c-4.971,0-9,4.029-9,9s4.029,9,9,9h65.5
		c4.971,0,9-4.029,9-9S169.229,52.154,164.259,52.154z"/>
</g>
<g>
</g>
<g>
</g>
<g>
</g>
<g>
</g>
<g>
</g>
<g>
</g>
<g>
</g>
<g>
</g>
<g>
</g>
<g>
</g>
<g>
</g>
<g>
</g>
<g>
</g>
<g>
</g>
<g>
</g>
</svg>
