<?xml version="1.0" encoding="iso-8859-1"?>
<!-- Generator: Adobe Illustrator 18.0.0, SVG Export Plug-In . SVG Version: 6.00 Build 0)  -->
<!DOCTYPE svg PUBLIC "-//W3C//DTD SVG 1.1//EN" "http://www.w3.org/Graphics/SVG/1.1/DTD/svg11.dtd">
<svg version="1.1" id="Capa_1" xmlns="http://www.w3.org/2000/svg" xmlns:xlink="http://www.w3.org/1999/xlink" x="0px" y="0px"
	 viewBox="0 0 495.681 495.681" style="enable-background:new 0 0 495.681 495.681;" xml:space="preserve">
<g id="XMLID_80_">
	<path id="XMLID_81_" d="M173.035,252.035L26.069,330.999c-7.596,4.08-12.335,12.005-12.335,20.634v120.622
		c0,12.94,10.487,23.427,23.427,23.427c12.939,0,23.427-10.487,23.427-23.427v-106.61l133.367-71.661l-6.13-24.736L173.035,252.035z
		"/>
	<path id="XMLID_82_" d="M447.431,104.601l-146.555,78.744l2.498,2.91l38.792,28.094l92.929-49.928v106.363
		c0,12.939,10.488,23.427,23.427,23.427c12.938,0,23.426-10.488,23.426-23.427V125.238
		C481.948,107.537,463.014,96.218,447.431,104.601z"/>
	<path id="XMLID_83_" d="M366.342,266.566l-51.686-37.429l-30.455-22.054l-8.682-10.112l-58.798-68.449
		c32.013-16.198,24.947-12.63,40.971-20.748c3.33-1.683,6.213-4.146,8.4-7.164l45.939-63.453c7.586-10.478,5.234-25.13-5.244-32.716
		c-10.469-7.568-25.119-5.235-32.715,5.243l-42.607,58.852c-31.342,15.866-17.131,8.675-64.315,32.568
		c-2.708,1.372-19.529,15.4-23.837,19.098c-2.682,2.298-6.608,6.562-10.36,13.955c-25.97,51.43-19.345,38.317-31.947,63.28
		l-52.18-18.019c-12.188-4.208-25.558,2.279-29.786,14.505c-4.219,12.225,2.27,25.559,14.503,29.787
		c6.196,2.141,72.852,25.97,79.159,25.97c8.628,0,16.838-4.787,20.91-12.866c12.298-24.369,7.046-13.963,23.471-46.498
		l56.417,65.687l22.722,91.693l-32.559,90.422c-5.262,14.604,2.314,30.711,16.92,35.973c14.66,5.289,30.728-2.379,35.972-16.92
		l35.451-98.439c1.886-5.225,2.178-10.898,0.843-16.288l-18.019-72.733l45.59,33.019l-8.207,91.006
		c-1.393,15.465,10.019,29.128,25.475,30.527c15.932,1.355,29.166-10.405,30.528-25.476l9.637-106.93
		C378.743,281.985,374.368,272.376,366.342,266.566z"/>
	<path id="XMLID_84_" d="M142.892,97.592c16.837-14.44,19.282-40.365,4.384-57.69c-14.725-17.139-40.541-19.087-57.707-4.374
		c-17.122,14.725-19.071,40.557-4.355,57.68C100.22,110.695,126.639,111.566,142.892,97.592z"/>
</g>
<g>
</g>
<g>
</g>
<g>
</g>
<g>
</g>
<g>
</g>
<g>
</g>
<g>
</g>
<g>
</g>
<g>
</g>
<g>
</g>
<g>
</g>
<g>
</g>
<g>
</g>
<g>
</g>
<g>
</g>
</svg>
