<?xml version="1.0" encoding="iso-8859-1"?>
<!-- Generator: Adobe Illustrator 18.1.1, SVG Export Plug-In . SVG Version: 6.00 Build 0)  -->
<svg version="1.1" id="Capa_1" xmlns="http://www.w3.org/2000/svg" xmlns:xlink="http://www.w3.org/1999/xlink" x="0px" y="0px"
	 viewBox="0 0 217.938 217.938" style="enable-background:new 0 0 217.938 217.938;" xml:space="preserve">
<g>
	<g>
		<g>
			<path style="fill:#010002;" d="M95.15,44.462c3.928,2.705,8.688,4.298,13.818,4.298c5.131,0,9.886-1.593,13.819-4.298
				c-3.744-3.146-8.563-5.044-13.819-5.044S98.89,41.315,95.15,44.462z"/>
			<path style="fill:#010002;" d="M122.787,4.306c-3.936-2.71-8.688-4.304-13.82-4.304c-5.135,0-9.891,1.594-13.818,4.304
				c3.74,3.141,8.561,5.044,13.818,5.044C114.226,9.35,119.042,7.447,122.787,4.306z"/>
			<path style="fill:#010002;" d="M90.836,40.641c4.826-4.314,11.165-6.963,18.132-6.963c6.968,0,13.308,2.649,18.133,6.963
				c3.872-4.314,6.252-10.002,6.252-16.26c0-6.257-2.38-11.94-6.252-16.259c-4.825,4.319-11.165,6.962-18.133,6.962
				c-6.967,0-13.306-2.649-18.132-6.962c-3.872,4.319-6.252,10.002-6.252,16.259C84.584,30.639,86.964,36.327,90.836,40.641z"/>
			<path style="fill:#010002;" d="M214.102,195.582l-50.55-50.545c-1.729-1.729-3.836-2.832-6.039-3.385
				c-12.474-15.637-15.185-32.972-15.735-39.954c4.271-18.157,0.301-39.278-11.384-57.963c-4.403,4.877-10.438,8.231-17.259,9.216
				l2.497,2.497l-11.248,11.244L93.136,55.446l4.481-4.481c-2.293-0.979-4.417-2.263-6.361-3.775l-3.189,3.191l-11.243-11.25
				l4.971-4.973c-0.959-2.665-1.535-5.506-1.667-8.465l-8.373,8.368L60.508,22.817l10.36-10.357
				c0.804,0.183,1.606,0.421,2.411,0.634l7.12,7.12c0.756-5.232,2.893-10.013,6.057-13.94C60.913-4.317,33.35-1.587,15.881,15.885
				C-8.97,40.741-4.121,86.018,26.684,116.827c21.89,21.887,51.059,30.6,75.042,24.939c6.985,0.543,24.248,3.225,39.929,15.747
				c0.555,2.202,1.646,4.31,3.375,6.039l50.555,50.549c5.115,5.115,13.4,5.115,18.519,0
				C219.217,208.984,219.217,200.701,214.102,195.582z M132.078,94.392l-6.317-6.318l6.644-6.633
				C132.783,85.861,132.683,90.2,132.078,94.392z M130.181,102.623c-1.729,5.308-4.405,10.202-8.008,14.473l-12.718-12.712
				l11.247-11.241L130.181,102.623z M120.701,60.513l9.729,9.729c0.213,0.802,0.441,1.604,0.624,2.41l-10.353,10.353L109.45,71.76
				L120.701,60.513z M115.632,88.074L104.384,99.32L93.136,88.069l11.248-11.24L115.632,88.074z M50.378,88.069L39.125,99.32
				L27.882,88.079L39.13,76.833L50.378,88.069z M27.885,55.444l11.246-11.246l11.248,11.246l-11.248,11.25L27.885,55.444z
				 M44.197,71.759l11.248-11.246l11.246,11.246L55.445,83.004L44.197,71.759z M71.756,76.824l11.248,11.245L71.758,99.32
				L60.51,88.069L71.756,76.824z M88.071,93.143l11.248,11.246L88.071,115.63l-11.246-11.246L88.071,93.143z M99.316,71.759
				L88.071,83.004L76.825,71.758l11.243-11.245L99.316,71.759z M71.758,44.203l11.246,11.246L71.758,66.694L60.509,55.448
				L71.758,44.203z M66.691,39.128L55.443,50.379L44.197,39.128l11.246-11.245L66.691,39.128z M62.075,11.116l-6.638,6.633
				l-6.315-6.313C53.314,10.832,57.655,10.736,62.075,11.116z M40.896,13.339l9.475,9.479L39.13,34.064L26.41,21.347
				C30.696,17.744,35.583,15.069,40.896,13.339z M21.343,26.411l12.714,12.717l-11.24,11.246l-9.487-9.479
				C15.066,35.581,17.735,30.694,21.343,26.411z M11.43,49.131l6.315,6.313l-6.635,6.643C10.727,57.656,10.823,53.317,11.43,49.131z
				 M12.455,70.876l10.363-10.363l11.24,11.246L22.812,83.004l-9.726-9.723C12.871,72.479,12.635,71.672,12.455,70.876z
				 M31.797,106.653c-3.722-4.045-7.005-8.313-9.753-12.738l0.769-0.771l11.243,11.246L31.797,106.653z M49.602,121.471
				c-4.435-2.745-8.693-6.033-12.74-9.753l2.263-2.259l11.246,11.246L49.602,121.471z M44.195,104.389l11.248-11.246l11.248,11.246
				L55.443,115.63L44.195,104.389z M70.236,130.433l-9.728-9.731l11.248-11.248l11.248,11.248l-10.363,10.355
				C71.842,130.875,71.037,130.641,70.236,130.433z M81.427,132.408l6.643-6.645l6.315,6.316
				C90.202,132.686,85.855,132.787,81.427,132.408z M102.625,130.184l-9.482-9.482l11.243-11.248l12.712,12.718
				C112.82,125.779,107.933,128.449,102.625,130.184z M145.029,145.033c-0.67,0.676-1.242,1.404-1.729,2.178
				c-8.852-6.188-17.854-9.829-25.46-11.922c3.521-2.135,6.812-4.668,9.794-7.651c2.984-2.981,5.518-6.282,7.652-9.794
				c2.092,7.611,5.729,16.609,11.91,25.455C146.43,143.795,145.703,144.367,145.029,145.033z"/>
		</g>
	</g>
</g>
<g>
</g>
<g>
</g>
<g>
</g>
<g>
</g>
<g>
</g>
<g>
</g>
<g>
</g>
<g>
</g>
<g>
</g>
<g>
</g>
<g>
</g>
<g>
</g>
<g>
</g>
<g>
</g>
<g>
</g>
</svg>
